<?xml version="1.0" encoding="UTF-8" standalone="no"?>
<!-- 2026-03-22 18:17:40 Generated by QCAD 3.32.2 SVG Exporter -->

<svg
   width="420.00101mm"
   height="297.00101mm"
   viewBox="-410 -287 420.00099 297.00101"
   version="1.1"
   style="fill:none;stroke-linecap:round;stroke-linejoin:round"
   id="svg45"
   xmlns="http://www.w3.org/2000/svg"
   xmlns:svg="http://www.w3.org/2000/svg">
  <defs
     id="defs45" />
  <path
     d="m -409.9995,10.0005 h 9 m 3,0 h 6 m 3,0 h 24 m 3,0 h 6 m 3,0 h 24 m 3,0 h 6 m 3,0 h 24 m 3,0 h 6 m 3,0 h 24 m 3,0 h 6 m 3,0 h 24 m 3,0 h 6 m 3,0 h 24 m 3,0 h 6 m 3,0 h 24 m 3,0 h 6 m 3,0 h 24 m 3,0 h 6 m 3,0 h 24 m 3,0 h 6 m 3,0 h 24 m 3,0 h 6 m 3,0 h 24 m 3,0 h 6 m 3,0 h 3 v -21 m 0,-3 v -6 m 0,-3 v -24 m 0,-3 v -6 m 0,-3 v -24 m 0,-3 v -6 m 0,-3 v -24 m 0,-3 v -6 m 0,-3 v -24 m 0,-3 v -6 m 0,-3 v -24 m 0,-3 v -6 m 0,-3 v -24 m 0,-3 v -6 m 0,-3 v -24 m 0,-3 v -6 m 0,-3 v -12 h -12 m -3,0 h -6 m -3,0 h -24 m -3,0 h -6 m -3,0 h -24 m -3,0 h -6 m -3,0 h -24 m -3,0 h -6 m -3,0 h -24 m -3,0 h -6 m -3,0 h -24 m -3,0 h -6 m -3,0 h -24 m -3,0 h -6 m -3,0 h -24 m -3,0 h -6 m -3,0 h -24 m -3,0 h -6 m -3,0 h -24 m -3,0 h -6 m -3,0 h -24 m -3,0 h -6 m -3,0 h -24 m -3,0 h -6 m -3,0 v 0 24 m 0,3 v 6 m 0,3 v 24 m 0,3 v 6 m 0,3 v 24 m 0,3 v 6 m 0,3 v 24 m 0,3 v 6 m 0,3 v 24 m 0,3 v 6 m 0,3 v 24 m 0,3 v 6 m 0,3 v 24 m 0,3 v 6 m 0,3 v 24 m 0,3 v 6 m 0,3 v 9"
     style="stroke:#c0c0c0;stroke-width:0.001"
     id="path1" />
  <path
     d="M -389.9995,5.0000002e-4 H 5.0000002e-4 V -276.9995 H -389.9995 Z"
     style="stroke:#000000;stroke-width:0.35"
     id="path2" />
  <path
     d="M -48.5395,5.0000002e-4 H 5.0000002e-4 V -119.9995 H -48.5395 Z"
     style="stroke:#000000;stroke-width:0.25"
     id="path3" />
  <path
     d="m -399.9995,-138.4995 h 10"
     style="stroke:#c0c0c0;stroke-width:0.18"
     id="path4" />
  <path
     d="M 5.0000002e-4,-14.9995 H -48.5395"
     style="stroke:#000000;stroke-width:0.18"
     id="path5" />
  <path
     d="m -14.9995,-7.4995 h -33.54"
     style="stroke:#000000;stroke-width:0.18"
     id="path6" />
  <path
     d="M 5.0000002e-4,-37.4995 H -48.5395"
     style="stroke:#000000;stroke-width:0.18"
     id="path7" />
  <path
     d="M 5.0000002e-4,-59.9995 H -48.5395"
     style="stroke:#000000;stroke-width:0.18"
     id="path8" />
  <path
     d="M 5.0000002e-4,-67.4995 H -48.5395"
     style="stroke:#000000;stroke-width:0.18"
     id="path9" />
  <path
     d="M -48.5395,-22.4995 H 5.0000002e-4"
     style="stroke:#000000;stroke-width:0.18"
     id="path10" />
  <path
     d="M -48.5395,-82.4995 H 5.0000002e-4"
     style="stroke:#000000;stroke-width:0.18"
     id="path11" />
  <path
     d="M -48.5395,-29.9995 H 5.0000002e-4"
     style="stroke:#000000;stroke-width:0.18"
     id="path12" />
  <path
     d="M -48.5395,-89.9995 H 5.0000002e-4"
     style="stroke:#000000;stroke-width:0.18"
     id="path13" />
  <path
     d="M -14.9995,5.0000002e-4 V -14.9995"
     style="stroke:#000000;stroke-width:0.18"
     id="path14" />
  <path
     d="M -31.7695,-14.9995 V 5.0000002e-4"
     style="stroke:#000000;stroke-width:0.18"
     id="path15" />
  <g
     id="g16"
     transform="matrix(1,0,0,-1,5.0000002e-4,5.0000002e-4)">
    <path
       d="m -47.6067,58.2 c 0.0142,0 0.0425,0.0028 0.0564,0.0056 0.0139,0.0027 0.0411,0.011 0.0542,0.0164 0.0131,0.0054 0.0381,0.0188 0.0499,0.0267 0.0118,0.0079 0.0338,0.0259 0.0438,0.0359 0.01,0.0101 0.0281,0.032 0.0359,0.0438 0.0079,0.0118 0.0213,0.0368 0.0267,0.0499 0.0055,0.0132 0.0137,0.0403 0.0165,0.0542 0.0027,0.014 0.0055,0.0422 0.0055,0.0564 v 0.7222 c 0,0.0142 -0.0028,0.0425 -0.0055,0.0564 -0.0028,0.0139 -0.011,0.0411 -0.0165,0.0542 -0.0054,0.0131 -0.0188,0.0381 -0.0267,0.0499 -0.0079,0.0118 -0.0259,0.0338 -0.0359,0.0438 -0.01,0.01 -0.032,0.028 -0.0438,0.0359 -0.0118,0.0079 -0.0368,0.0213 -0.0499,0.0267 -0.0131,0.0054 -0.0403,0.0137 -0.0542,0.0165 -0.0139,0.0027 -0.0422,0.0055 -0.0564,0.0055 H -48.04 v -1.3 z m 0.7223,0 v 1.3 h 0.4333 c 0.0142,0 0.0424,-0.0028 0.0563,-0.0055 0.014,-0.0028 0.0411,-0.0111 0.0542,-0.0165 0.0131,-0.0054 0.0382,-0.0188 0.05,-0.0267 0.0118,-0.0079 0.0337,-0.0259 0.0438,-0.0359 0.01,-0.01 0.028,-0.032 0.0359,-0.0438 0.0079,-0.0118 0.0213,-0.0368 0.0267,-0.0499 0.0054,-0.0131 0.0137,-0.0403 0.0164,-0.0542 0.0028,-0.0139 0.0056,-0.0422 0.0056,-0.0564 v -0.1444 c 0,-0.0142 -0.0028,-0.0425 -0.0056,-0.0564 -0.0027,-0.0139 -0.011,-0.0411 -0.0164,-0.0542 -0.0054,-0.0131 -0.0188,-0.0381 -0.0267,-0.0499 -0.0079,-0.0118 -0.0259,-0.0338 -0.0359,-0.0438 -0.0101,-0.01 -0.032,-0.028 -0.0438,-0.0359 -0.0118,-0.0079 -0.0368,-0.0213 -0.05,-0.0267 -0.0131,-0.0055 -0.0402,-0.0137 -0.0542,-0.0165 -0.0139,-0.0027 -0.0421,-0.0055 -0.0563,-0.0055 h -0.4333 m 0.4333,0 0.2889,-0.5778 m 0.4333,0 0.4333,1.3 0.4334,-1.3 m -0.7463,0.3611 h 0.626 m 0.5536,0.9389 0.2889,-1.3 0.2889,0.8667 0.2889,-0.8667 0.2889,1.3 m 0.4333,0 v -1.3 m 0.4333,0 v 1.3 l 0.7223,-1.3 v 1.3 m 1.1555,0 h -0.4333 c -0.0142,0 -0.0425,-0.0028 -0.0564,-0.0056 -0.0139,-0.0027 -0.0411,-0.011 -0.0542,-0.0164 -0.0131,-0.0054 -0.0381,-0.0188 -0.0499,-0.0267 -0.0118,-0.0079 -0.0338,-0.0259 -0.0438,-0.0359 -0.01,-0.0101 -0.028,-0.032 -0.0359,-0.0438 -0.0079,-0.0118 -0.0213,-0.0368 -0.0267,-0.0499 -0.0055,-0.0132 -0.0137,-0.0403 -0.0165,-0.0542 -0.0027,-0.014 -0.0055,-0.0422 -0.0055,-0.0564 v -0.7222 c 0,-0.0142 0.0028,-0.0425 0.0055,-0.0564 0.0028,-0.0139 0.0111,-0.0411 0.0165,-0.0542 0.0054,-0.0131 0.0188,-0.0381 0.0267,-0.0499 0.0079,-0.0118 0.0259,-0.0338 0.0359,-0.0438 0.01,-0.01 0.032,-0.028 0.0438,-0.0359 0.0118,-0.0079 0.0368,-0.0213 0.0499,-0.0267 0.0131,-0.0054 0.0403,-0.0137 0.0542,-0.0165 0.0139,-0.0027 0.0422,-0.0055 0.0564,-0.0055 h 0.4333 v 0.7222 h -0.2167"
       style="stroke:#000000;stroke-width:0.18"
       id="path16" />
  </g>
  <g
     id="g17"
     transform="matrix(1,0,0,-1,5.0000002e-4,5.0000002e-4)">
    <path
       d="m -47.6067,28.2 c 0.0142,0 0.0425,0.0028 0.0564,0.0056 0.0139,0.0027 0.0411,0.011 0.0542,0.0164 0.0131,0.0054 0.0381,0.0188 0.0499,0.0267 0.0118,0.0079 0.0338,0.0259 0.0438,0.0359 0.01,0.0101 0.0281,0.032 0.0359,0.0438 0.0079,0.0118 0.0213,0.0368 0.0267,0.0499 0.0055,0.0132 0.0137,0.0403 0.0165,0.0542 0.0027,0.014 0.0055,0.0422 0.0055,0.0564 v 0.7222 c 0,0.0142 -0.0028,0.0425 -0.0055,0.0564 -0.0028,0.0139 -0.011,0.0411 -0.0165,0.0542 -0.0054,0.0131 -0.0188,0.0381 -0.0267,0.0499 -0.0079,0.0118 -0.0259,0.0338 -0.0359,0.0438 -0.01,0.01 -0.032,0.028 -0.0438,0.0359 -0.0118,0.0079 -0.0368,0.0213 -0.0499,0.0267 -0.0131,0.0054 -0.0403,0.0137 -0.0542,0.0165 -0.0139,0.0027 -0.0422,0.0055 -0.0564,0.0055 H -48.04 v -1.3 z m 0.7223,0 0.4333,1.3 0.4333,-1.3 m -0.7463,0.3611 h 0.626 m 0.5537,0.9389 h 0.8666 m -0.4333,0 v -1.3 m 1.4444,1.3 h -0.5777 v -1.3 h 0.5777 m -0.5777,0.7222 h 0.4333"
       style="stroke:#000000;stroke-width:0.18"
       id="path17" />
  </g>
  <g
     id="g18"
     transform="matrix(1,0,0,-1,5.0000002e-4,5.0000002e-4)">
    <path
       d="m -47.3177,21.8962 c -0.0419,0.0213 -0.1296,0.0555 -0.1749,0.0682 -0.0452,0.0127 -0.1379,0.0291 -0.1847,0.0327 -0.0185,0.0015 -0.0553,0.0029 -0.0738,0.0029 -0.0142,0 -0.0425,-0.0028 -0.0564,-0.0056 -0.0139,-0.0027 -0.0411,-0.011 -0.0542,-0.0164 -0.0131,-0.0054 -0.0381,-0.0188 -0.0499,-0.0267 -0.0118,-0.0079 -0.0337,-0.0259 -0.0438,-0.0359 -0.01,-0.0101 -0.028,-0.032 -0.0359,-0.0438 -0.0079,-0.0118 -0.0213,-0.0368 -0.0267,-0.0499 -0.0054,-0.0132 -0.0137,-0.0403 -0.0164,-0.0542 -0.0028,-0.014 -0.0056,-0.0422 -0.0056,-0.0564 0,-0.0142 0.0028,-0.0424 0.0056,-0.0564 0.0027,-0.0139 0.011,-0.041 0.0164,-0.0542 0.0054,-0.0131 0.0188,-0.0381 0.0267,-0.0499 0.0079,-0.0118 0.0259,-0.0337 0.0359,-0.0438 0.0101,-0.01 0.032,-0.028 0.0438,-0.0359 0.0071,-0.0047 0.0218,-0.0133 0.0293,-0.0172 l 0.4069,-0.2074 c 0.0076,-0.0039 0.0222,-0.0125 0.0293,-0.0172 0.0118,-0.0079 0.0337,-0.0259 0.0438,-0.0359 0.01,-0.01 0.028,-0.032 0.0359,-0.0438 0.0079,-0.0118 0.0213,-0.0368 0.0267,-0.0499 0.0054,-0.0132 0.0137,-0.0403 0.0164,-0.0542 0.0028,-0.014 0.0056,-0.0422 0.0056,-0.0564 0,-0.0142 -0.0028,-0.0425 -0.0056,-0.0564 -0.0028,-0.0139 -0.011,-0.0411 -0.0164,-0.0542 -0.0055,-0.0131 -0.0188,-0.0381 -0.0267,-0.0499 -0.0079,-0.0118 -0.0259,-0.0338 -0.036,-0.0438 -0.01,-0.01 -0.0319,-0.028 -0.0437,-0.0359 -0.0119,-0.0079 -0.0369,-0.0213 -0.05,-0.0267 -0.0131,-0.0054 -0.0403,-0.0137 -0.0542,-0.0165 -0.0139,-0.0027 -0.0422,-0.0055 -0.0564,-0.0055 -0.0183,0 -0.055,0.0014 -0.0733,0.0028 -0.0469,0.0036 -0.1395,0.02 -0.1848,0.0327 -0.0453,0.0127 -0.1329,0.0468 -0.1748,0.068 M -46.3066,22 h -0.2889 c -0.0142,0 -0.0424,-0.0028 -0.0564,-0.0056 -0.0139,-0.0027 -0.041,-0.011 -0.0541,-0.0164 -0.0132,-0.0054 -0.0382,-0.0188 -0.05,-0.0267 -0.0118,-0.0079 -0.0337,-0.0259 -0.0438,-0.0359 -0.01,-0.0101 -0.028,-0.032 -0.0359,-0.0438 -0.0079,-0.0118 -0.0213,-0.0368 -0.0267,-0.0499 -0.0054,-0.0132 -0.0137,-0.0403 -0.0164,-0.0542 -0.0028,-0.014 -0.0056,-0.0422 -0.0056,-0.0564 v -0.7222 c 0,-0.0142 0.0028,-0.0425 0.0056,-0.0564 0.0027,-0.0139 0.011,-0.0411 0.0164,-0.0542 0.0054,-0.0131 0.0188,-0.0381 0.0267,-0.0499 0.0079,-0.0118 0.0259,-0.0338 0.0359,-0.0438 0.0101,-0.01 0.032,-0.028 0.0438,-0.0359 0.0118,-0.0079 0.0369,-0.0213 0.05,-0.0267 0.0131,-0.0054 0.0402,-0.0137 0.0542,-0.0165 0.0139,-0.0027 0.0421,-0.0055 0.0563,-0.0055 h 0.2889 m 0.4333,0 0.4334,1.3 0.4333,-1.3 m -0.7463,0.3611 h 0.626 M -44.5733,22 v -1.3 h 0.5778 m 1.0111,1.3 h -0.5778 v -1.3 h 0.5778 m -0.5778,0.7222 h 0.4334"
       style="stroke:#000000;stroke-width:0.18"
       id="path18" />
  </g>
  <g
     id="g19"
     transform="matrix(1,0,0,-1,5.0000002e-4,5.0000002e-4)">
    <path
       d="m -47.6067,13.2 c 0.0142,0 0.0425,0.0028 0.0564,0.0056 0.0139,0.0027 0.0411,0.011 0.0542,0.0164 0.0131,0.0054 0.0381,0.0188 0.0499,0.0267 0.0118,0.0079 0.0338,0.0259 0.0438,0.0359 0.01,0.0101 0.0281,0.032 0.0359,0.0438 0.0079,0.0118 0.0213,0.0368 0.0267,0.0499 0.0055,0.0132 0.0137,0.0403 0.0165,0.0542 0.0027,0.014 0.0055,0.0422 0.0055,0.0564 v 0.7222 c 0,0.0142 -0.0028,0.0425 -0.0055,0.0564 -0.0028,0.0139 -0.011,0.0411 -0.0165,0.0542 -0.0054,0.0131 -0.0188,0.0381 -0.0267,0.0499 -0.0079,0.0118 -0.0259,0.0338 -0.0359,0.0438 -0.01,0.01 -0.032,0.028 -0.0438,0.0359 -0.0118,0.0079 -0.0368,0.0213 -0.0499,0.0267 -0.0131,0.0054 -0.0403,0.0137 -0.0542,0.0165 -0.0139,0.0027 -0.0422,0.0055 -0.0564,0.0055 H -48.04 v -1.3 z m 0.7223,0 v 1.3 h 0.4333 c 0.0142,0 0.0424,-0.0028 0.0563,-0.0055 0.014,-0.0028 0.0411,-0.0111 0.0542,-0.0165 0.0131,-0.0054 0.0382,-0.0188 0.05,-0.0267 0.0118,-0.0079 0.0337,-0.0259 0.0438,-0.0359 0.01,-0.01 0.028,-0.032 0.0359,-0.0438 0.0079,-0.0118 0.0213,-0.0368 0.0267,-0.0499 0.0054,-0.0131 0.0137,-0.0403 0.0164,-0.0542 0.0028,-0.0139 0.0056,-0.0422 0.0056,-0.0564 v -0.1444 c 0,-0.0142 -0.0028,-0.0425 -0.0056,-0.0564 -0.0027,-0.0139 -0.011,-0.0411 -0.0164,-0.0542 -0.0054,-0.0131 -0.0188,-0.0381 -0.0267,-0.0499 -0.0079,-0.0118 -0.0259,-0.0338 -0.0359,-0.0438 -0.0101,-0.01 -0.032,-0.028 -0.0438,-0.0359 -0.0118,-0.0079 -0.0368,-0.0213 -0.05,-0.0267 -0.0131,-0.0055 -0.0402,-0.0137 -0.0542,-0.0165 -0.0139,-0.0027 -0.0421,-0.0055 -0.0563,-0.0055 h -0.4333 m 0.4333,0 0.2889,-0.5778 m 0.4333,0 0.4333,1.3 0.4334,-1.3 m -0.7463,0.3611 h 0.626 m 0.5536,0.9389 0.2889,-1.3 0.2889,0.8667 0.2889,-0.8667 0.2889,1.3 m 0.4333,-1.3 v 1.3 l 0.7222,-1.3 v 1.3"
       style="stroke:#000000;stroke-width:0.18"
       id="path19" />
  </g>
  <g
     id="g20"
     transform="matrix(1,0,0,-1,5.0000002e-4,5.0000002e-4)">
    <path
       d="m -47.4622,7 h -0.2889 c -0.0142,0 -0.0425,-0.0028 -0.0564,-0.0056 -0.0139,-0.0027 -0.0411,-0.011 -0.0542,-0.0164 -0.0131,-0.0054 -0.0381,-0.0188 -0.0499,-0.0267 -0.0118,-0.0079 -0.0338,-0.0259 -0.0438,-0.0359 -0.01,-0.0101 -0.028,-0.032 -0.0359,-0.0438 C -47.9992,6.8598 -48.0126,6.8348 -48.018,6.8217 -48.0234,6.8085 -48.0317,6.7814 -48.0345,6.7675 -48.0372,6.7535 -48.04,6.7253 -48.04,6.7111 V 5.9889 c 0,-0.0142 0.0028,-0.0425 0.0056,-0.0564 0.0027,-0.0139 0.011,-0.0411 0.0164,-0.0542 0.0054,-0.0131 0.0188,-0.0381 0.0267,-0.0499 0.0079,-0.0118 0.0259,-0.0338 0.0359,-0.0438 0.0101,-0.01 0.032,-0.028 0.0438,-0.0359 0.0118,-0.0079 0.0368,-0.0213 0.0499,-0.0267 0.0132,-0.0054 0.0403,-0.0137 0.0542,-0.0165 0.014,-0.0027 0.0422,-0.0055 0.0564,-0.0055 h 0.2889 M -47.0289,7 V 5.7 m 0.7222,0 V 7 m -0.7222,-0.5778 h 0.7222 M -45.2956,7 h -0.5777 V 5.7 h 0.5777 m -0.5777,0.7222 H -45.44 M -44.2844,7 h -0.2889 c -0.0142,0 -0.0425,-0.0028 -0.0564,-0.0056 -0.0139,-0.0027 -0.0411,-0.011 -0.0542,-0.0164 -0.0131,-0.0054 -0.0381,-0.0188 -0.0499,-0.0267 -0.0118,-0.0079 -0.0338,-0.0259 -0.0438,-0.0359 -0.01,-0.0101 -0.0281,-0.032 -0.0359,-0.0438 -0.0079,-0.0118 -0.0213,-0.0368 -0.0267,-0.0499 -0.0055,-0.0132 -0.0137,-0.0403 -0.0165,-0.0542 -0.0027,-0.014 -0.0055,-0.0422 -0.0055,-0.0564 V 5.9889 c 0,-0.0142 0.0028,-0.0425 0.0055,-0.0564 0.0028,-0.0139 0.011,-0.0411 0.0165,-0.0542 0.0054,-0.0131 0.0188,-0.0381 0.0267,-0.0499 0.0079,-0.0118 0.0259,-0.0338 0.0359,-0.0438 0.01,-0.01 0.032,-0.028 0.0438,-0.0359 0.0118,-0.0079 0.0368,-0.0213 0.0499,-0.0267 0.0131,-0.0054 0.0403,-0.0137 0.0542,-0.0165 C -44.6158,5.7028 -44.5875,5.7 -44.5733,5.7 h 0.2889 M -43.8511,7 V 5.7 m 0,0.5056 L -43.1289,7 M -43.6097,6.471 -43.1289,5.7 m 1.0111,1.3 h -0.5778 V 5.7 h 0.5778 m -0.5778,0.7222 h 0.4334 M -41.2511,5.7 c 0.0142,0 0.0424,0.0028 0.0563,0.0056 0.014,0.0027 0.0411,0.011 0.0542,0.0164 0.0132,0.0054 0.0382,0.0188 0.05,0.0267 0.0118,0.0079 0.0337,0.0259 0.0438,0.0359 0.01,0.0101 0.028,0.032 0.0359,0.0438 0.0079,0.0118 0.0213,0.0368 0.0267,0.0499 0.0054,0.0132 0.0137,0.0403 0.0164,0.0542 0.0028,0.014 0.0056,0.0422 0.0056,0.0564 v 0.7222 c 0,0.0142 -0.0028,0.0425 -0.0056,0.0564 -0.0027,0.0139 -0.011,0.0411 -0.0164,0.0542 -0.0054,0.0131 -0.0188,0.0381 -0.0267,0.0499 -0.0079,0.0118 -0.0259,0.0338 -0.0359,0.0438 -0.0101,0.01 -0.032,0.028 -0.0438,0.0359 -0.0118,0.0079 -0.0369,0.0213 -0.05,0.0267 -0.0131,0.0054 -0.0402,0.0137 -0.0542,0.0165 C -41.2087,6.9972 -41.2369,7 -41.2511,7 h -0.4333 V 5.7 Z"
       style="stroke:#000000;stroke-width:0.18"
       id="path20" />
  </g>
  <g
     id="g21"
     transform="matrix(1,0,0,-1,5.0000002e-4,5.0000002e-4)">
    <path
       d="m -31.27,13.2 h 0.1444 c 0.0142,0 0.0425,0.0028 0.0564,0.0056 0.0139,0.0027 0.0411,0.011 0.0542,0.0164 0.0131,0.0054 0.0381,0.0188 0.0499,0.0267 0.0118,0.0079 0.0338,0.0259 0.0438,0.0359 0.0101,0.0101 0.0281,0.032 0.0359,0.0438 0.0079,0.0118 0.0213,0.0368 0.0267,0.0499 0.0055,0.0132 0.0137,0.0403 0.0165,0.0542 0.0028,0.014 0.0055,0.0422 0.0055,0.0564 V 14.5 m 0.4334,-0.2889 c 0,0.0142 0.0027,0.0424 0.0055,0.0564 0.0028,0.0139 0.011,0.041 0.0165,0.0542 0.0054,0.0131 0.0188,0.0381 0.0267,0.0499 0.0078,0.0118 0.0258,0.0337 0.0359,0.0438 0.01,0.01 0.032,0.028 0.0438,0.0359 0.0118,0.0079 0.0368,0.0213 0.0499,0.0267 0.0131,0.0054 0.0403,0.0137 0.0542,0.0164 0.0139,0.0028 0.0422,0.0056 0.0564,0.0056 h 0.1444 c 0.0142,0 0.0424,-0.0028 0.0563,-0.0055 0.014,-0.0028 0.0411,-0.0111 0.0542,-0.0165 0.0132,-0.0054 0.0382,-0.0188 0.05,-0.0267 0.0118,-0.0079 0.0337,-0.0259 0.0438,-0.0359 0.01,-0.01 0.028,-0.032 0.0359,-0.0438 0.0079,-0.0118 0.0213,-0.0368 0.0267,-0.0499 0.0054,-0.0131 0.0137,-0.0403 0.0164,-0.0542 0.0028,-0.0139 0.0056,-0.0422 0.0056,-0.0564 v -0.7222 c 0,-0.0142 -0.0028,-0.0424 -0.0056,-0.0564 -0.0027,-0.0139 -0.011,-0.041 -0.0164,-0.0542 -0.0054,-0.0131 -0.0188,-0.0381 -0.0267,-0.0499 -0.0079,-0.0118 -0.0259,-0.0337 -0.0359,-0.0438 -0.0101,-0.01 -0.032,-0.028 -0.0438,-0.0359 -0.0118,-0.0079 -0.0368,-0.0213 -0.0499,-0.0267 -0.0132,-0.0054 -0.0403,-0.0137 -0.0542,-0.0164 C -29.9276,13.2028 -29.9558,13.2 -29.97,13.2 h -0.1444 c -0.0142,0 -0.0425,0.0028 -0.0564,0.0055 -0.0139,0.0028 -0.0411,0.0111 -0.0542,0.0165 -0.0131,0.0054 -0.0381,0.0188 -0.0499,0.0267 -0.0118,0.0079 -0.0338,0.0259 -0.0438,0.0359 -0.01,0.01 -0.0281,0.032 -0.0359,0.0438 -0.0079,0.0118 -0.0213,0.0368 -0.0267,0.0499 -0.0055,0.0131 -0.0137,0.0403 -0.0165,0.0542 -0.0028,0.0139 -0.0055,0.0422 -0.0055,0.0564 z m 1.1555,-0.2889 h 0.3756 c 0.017,0 0.0509,-0.0033 0.0676,-0.0066 0.0167,-0.0034 0.0493,-0.0132 0.065,-0.0198 0.0158,-0.0065 0.0458,-0.0225 0.06,-0.032 0.0141,-0.0095 0.0405,-0.0311 0.0525,-0.0431 0.012,-0.0121 0.0337,-0.0384 0.0431,-0.0525 0.0095,-0.0142 0.0255,-0.0442 0.0321,-0.06 0.0065,-0.0157 0.0164,-0.0483 0.0197,-0.065 0.0033,-0.0167 0.0066,-0.0506 0.0066,-0.0676 v -0.0289 c 0,-0.0171 -0.0033,-0.051 -0.0066,-0.0677 -0.0033,-0.0167 -0.0132,-0.0492 -0.0197,-0.065 -0.0066,-0.0157 -0.0226,-0.0458 -0.0321,-0.0599 -0.0094,-0.0142 -0.031,-0.0405 -0.0431,-0.0526 -0.012,-0.012 -0.0384,-0.0336 -0.0525,-0.0431 -0.0142,-0.0094 -0.0442,-0.0255 -0.06,-0.032 -0.0157,-0.0065 -0.0483,-0.0164 -0.065,-0.0197 C -28.8213,13.2033 -28.8552,13.2 -28.8722,13.2 h -0.3756 v 1.3 h 0.3611 c 0.0142,0 0.0425,-0.0028 0.0564,-0.0056 0.0139,-0.0027 0.0411,-0.011 0.0542,-0.0164 0.0131,-0.0054 0.0381,-0.0188 0.0499,-0.0267 0.0118,-0.0079 0.0338,-0.0259 0.0438,-0.0359 0.01,-0.01 0.0281,-0.032 0.0359,-0.0438 0.0079,-0.0118 0.0213,-0.0368 0.0267,-0.0499 0.0055,-0.0131 0.0137,-0.0403 0.0165,-0.0542 0.0027,-0.0139 0.0055,-0.0422 0.0055,-0.0564 0,-0.0142 -0.0028,-0.0424 -0.0055,-0.0563 -0.0028,-0.014 -0.011,-0.0411 -0.0165,-0.0542 -0.0054,-0.0132 -0.0188,-0.0382 -0.0267,-0.05 -0.0078,-0.0118 -0.0259,-0.0337 -0.0359,-0.0438 -0.01,-0.01 -0.032,-0.028 -0.0438,-0.0359 -0.0118,-0.0079 -0.0368,-0.0213 -0.0499,-0.0267 -0.0131,-0.0054 -0.0403,-0.0137 -0.0542,-0.0164 -0.0139,-0.0028 -0.0422,-0.0056 -0.0564,-0.0056 M -27.5506,13.2 v 1.3 l 0.7223,-1.3 v 1.3 m 0.4333,-1.0111 c 0,-0.0142 0.0028,-0.0425 0.0056,-0.0564 0.0027,-0.0139 0.011,-0.0411 0.0164,-0.0542 0.0054,-0.0131 0.0188,-0.0381 0.0267,-0.0499 0.0079,-0.0118 0.0259,-0.0338 0.0359,-0.0438 0.01,-0.01 0.032,-0.028 0.0438,-0.0359 0.0118,-0.0079 0.0368,-0.0213 0.0499,-0.0267 0.0131,-0.0054 0.0403,-0.0137 0.0542,-0.0164 0.0139,-0.0028 0.0422,-0.0056 0.0564,-0.0056 0.0142,0 0.0424,0.0028 0.0563,0.0056 0.014,0.0027 0.0411,0.011 0.0542,0.0164 0.0132,0.0054 0.0382,0.0188 0.05,0.0267 0.0118,0.0079 0.0337,0.0259 0.0438,0.0359 0.01,0.01 0.028,0.032 0.0359,0.0438 0.0079,0.0118 0.0213,0.0368 0.0267,0.0499 0.0054,0.0131 0.0137,0.0403 0.0164,0.0542 0.0028,0.0139 0.0056,0.0422 0.0056,0.0564 v 0.2889 c 0,0.0142 -0.0028,0.0424 -0.0056,0.0563 -0.0027,0.014 -0.011,0.0411 -0.0164,0.0542 -0.0054,0.0131 -0.0188,0.0382 -0.0267,0.05 -0.0079,0.0118 -0.0259,0.0337 -0.0359,0.0438 -0.0101,0.01 -0.032,0.028 -0.0438,0.0359 -0.0118,0.0079 -0.0368,0.0212 -0.05,0.0267 -0.0131,0.0054 -0.0402,0.0136 -0.0542,0.0164 -0.0139,0.0028 -0.0421,0.0056 -0.0563,0.0056 -0.0142,0 -0.0425,-0.0028 -0.0564,-0.0056 -0.0139,-0.0028 -0.0411,-0.011 -0.0542,-0.0164 -0.0131,-0.0055 -0.0381,-0.0188 -0.0499,-0.0267 -0.0118,-0.0079 -0.0338,-0.0259 -0.0438,-0.0359 -0.01,-0.0101 -0.028,-0.032 -0.0359,-0.0438 -0.0079,-0.0118 -0.0213,-0.0369 -0.0267,-0.05 -0.0054,-0.0131 -0.0137,-0.0402 -0.0164,-0.0542 -0.0028,-0.0139 -0.0056,-0.0421 -0.0056,-0.0563 z M -25.3839,13.2 v 0.0722"
       style="stroke:#000000;stroke-width:0.18"
       id="path21" />
  </g>
  <g
     id="g22"
     transform="matrix(1,0,0,-1,5.0000002e-4,5.0000002e-4)">
    <path
       d="m -30.5477,6.8962 c -0.0419,0.0213 -0.1296,0.0555 -0.1749,0.0682 -0.0452,0.0127 -0.1379,0.0291 -0.1847,0.0327 C -30.9258,6.9986 -30.9626,7 -30.9811,7 c -0.0142,0 -0.0425,-0.0028 -0.0564,-0.0056 -0.0139,-0.0027 -0.0411,-0.011 -0.0542,-0.0164 -0.0131,-0.0054 -0.0381,-0.0188 -0.0499,-0.0267 -0.0118,-0.0079 -0.0337,-0.0259 -0.0438,-0.0359 -0.01,-0.0101 -0.028,-0.032 -0.0359,-0.0438 -0.0079,-0.0118 -0.0213,-0.0368 -0.0267,-0.0499 -0.0054,-0.0132 -0.0137,-0.0403 -0.0164,-0.0542 -0.0028,-0.014 -0.0056,-0.0422 -0.0056,-0.0564 0,-0.0142 0.0028,-0.0424 0.0056,-0.0564 0.0027,-0.0139 0.011,-0.041 0.0164,-0.0542 0.0054,-0.0131 0.0188,-0.0381 0.0267,-0.0499 0.0079,-0.0118 0.0259,-0.0337 0.0359,-0.0438 0.0101,-0.01 0.032,-0.028 0.0438,-0.0359 0.0071,-0.0047 0.0218,-0.0133 0.0293,-0.0172 l 0.4069,-0.2074 c 0.0076,-0.0039 0.0222,-0.0125 0.0293,-0.0172 0.0118,-0.0079 0.0337,-0.0259 0.0438,-0.0359 0.01,-0.01 0.028,-0.032 0.0359,-0.0438 0.0079,-0.0118 0.0213,-0.0368 0.0267,-0.0499 0.0054,-0.0132 0.0137,-0.0403 0.0164,-0.0542 0.0028,-0.014 0.0056,-0.0422 0.0056,-0.0564 0,-0.0142 -0.0028,-0.0425 -0.0056,-0.0564 -0.0028,-0.0139 -0.011,-0.0411 -0.0164,-0.0542 -0.0055,-0.0131 -0.0188,-0.0381 -0.0267,-0.0499 -0.0079,-0.0118 -0.0259,-0.0338 -0.036,-0.0438 -0.01,-0.01 -0.0319,-0.028 -0.0437,-0.0359 C -30.688,5.7408 -30.713,5.7274 -30.7261,5.722 -30.7392,5.7166 -30.7664,5.7083 -30.7803,5.7055 -30.7942,5.7028 -30.8225,5.7 -30.8367,5.7 c -0.0183,0 -0.055,0.0014 -0.0733,0.0028 -0.0469,0.0036 -0.1395,0.02 -0.1848,0.0327 -0.0453,0.0127 -0.1329,0.0468 -0.1748,0.068 M -30.1144,7 V 5.7 m 0.7222,0 V 7 m -0.7222,-0.5778 h 0.7222 M -28.381,7 h -0.5778 V 5.7 h 0.5778 m -0.5778,0.7222 h 0.4333 M -27.3699,7 h -0.5778 V 5.7 h 0.5778 m -0.5778,0.7222 h 0.4333 M -26.9366,7 h 0.8667 m -0.4334,0 V 5.7 m 1.4084,0 V 7 l 0.7222,-1.3 V 7 m 0.4333,-1.0111 c 0,-0.0142 0.0028,-0.0425 0.0056,-0.0564 0.0027,-0.0139 0.011,-0.0411 0.0164,-0.0542 0.0054,-0.0131 0.0188,-0.0381 0.0267,-0.0499 0.0079,-0.0118 0.0259,-0.0338 0.0359,-0.0438 0.0101,-0.01 0.032,-0.028 0.0438,-0.0359 0.0118,-0.0079 0.0368,-0.0213 0.05,-0.0267 0.0131,-0.0054 0.0402,-0.0137 0.0541,-0.0164 0.014,-0.0028 0.0422,-0.0056 0.0564,-0.0056 0.0142,0 0.0424,0.0028 0.0564,0.0056 0.0139,0.0027 0.041,0.011 0.0542,0.0164 0.0131,0.0054 0.0381,0.0188 0.0499,0.0267 0.0118,0.0079 0.0337,0.0259 0.0438,0.0359 0.01,0.01 0.028,0.032 0.0359,0.0438 0.0079,0.0118 0.0213,0.0368 0.0267,0.0499 0.0054,0.0131 0.0137,0.0403 0.0164,0.0542 0.0028,0.0139 0.0056,0.0422 0.0056,0.0564 v 0.2889 c 0,0.0142 -0.0028,0.0424 -0.0056,0.0563 -0.0027,0.014 -0.011,0.0411 -0.0164,0.0542 -0.0054,0.0131 -0.0188,0.0382 -0.0267,0.05 -0.0079,0.0118 -0.0259,0.0337 -0.0359,0.0438 -0.0101,0.01 -0.032,0.028 -0.0438,0.0359 -0.0118,0.0079 -0.0368,0.0212 -0.0499,0.0267 -0.0132,0.0054 -0.0403,0.0136 -0.0542,0.0164 -0.014,0.0028 -0.0422,0.0056 -0.0564,0.0056 -0.0142,0 -0.0424,-0.0028 -0.0564,-0.0056 -0.0139,-0.0028 -0.041,-0.011 -0.0541,-0.0164 -0.0132,-0.0055 -0.0382,-0.0188 -0.05,-0.0267 -0.0118,-0.0079 -0.0337,-0.0259 -0.0438,-0.0359 -0.01,-0.0101 -0.028,-0.032 -0.0359,-0.0438 -0.0079,-0.0118 -0.0213,-0.0369 -0.0267,-0.05 -0.0054,-0.0131 -0.0137,-0.0402 -0.0164,-0.0542 -0.0028,-0.0139 -0.0056,-0.0421 -0.0056,-0.0563 z M -22.9283,5.7 v 0.0722"
       style="stroke:#000000;stroke-width:0.18"
       id="path22" />
  </g>
  <g
     id="g23"
     transform="matrix(1,0,0,-1,5.0000002e-4,5.0000002e-4)">
    <path
       d="m -14.5,13.2 v 1.3 h 0.4333 c 0.0142,0 0.0425,-0.0028 0.0564,-0.0055 0.0139,-0.0028 0.0411,-0.0111 0.0542,-0.0165 0.0131,-0.0054 0.0381,-0.0188 0.0499,-0.0267 0.0118,-0.0079 0.0338,-0.0259 0.0438,-0.0359 0.01,-0.01 0.028,-0.032 0.0359,-0.0438 0.0079,-0.0118 0.0213,-0.0368 0.0267,-0.0499 0.0055,-0.0131 0.0137,-0.0403 0.0165,-0.0542 0.0027,-0.0139 0.0055,-0.0422 0.0055,-0.0564 v -0.1444 c 0,-0.0142 -0.0028,-0.0425 -0.0055,-0.0564 -0.0028,-0.0139 -0.011,-0.0411 -0.0165,-0.0542 -0.0054,-0.0131 -0.0188,-0.0381 -0.0267,-0.0499 -0.0078,-0.0118 -0.0259,-0.0338 -0.0359,-0.0438 -0.01,-0.01 -0.032,-0.028 -0.0438,-0.0359 -0.0118,-0.0079 -0.0368,-0.0213 -0.0499,-0.0267 -0.0131,-0.0055 -0.0403,-0.0137 -0.0542,-0.0165 -0.0139,-0.0027 -0.0422,-0.0055 -0.0564,-0.0055 H -14.5 m 0.4333,0 0.2889,-0.5778 m 1.0111,1.3 h -0.5777 v -1.3 h 0.5777 m -0.5777,0.7222 h 0.4333 m 0.5778,0.5778 0.4333,-1.3 0.4333,1.3 m 0.4334,0 v -1.3 m 1.1556,1.1962 c -0.0419,0.0213 -0.1296,0.0555 -0.1749,0.0682 -0.0452,0.0127 -0.1379,0.0291 -0.1847,0.0327 -0.0185,0.0015 -0.0553,0.0029 -0.0738,0.0029 -0.0142,0 -0.0425,-0.0028 -0.0564,-0.0056 -0.0139,-0.0027 -0.0411,-0.011 -0.0542,-0.0164 -0.0131,-0.0054 -0.0381,-0.0188 -0.0499,-0.0267 -0.0118,-0.0079 -0.0337,-0.0259 -0.0438,-0.0359 -0.01,-0.0101 -0.028,-0.032 -0.0359,-0.0438 -0.0079,-0.0118 -0.0213,-0.0368 -0.0267,-0.0499 -0.0054,-0.0132 -0.0137,-0.0403 -0.0164,-0.0542 -0.0028,-0.014 -0.0056,-0.0422 -0.0056,-0.0564 0,-0.0142 0.0028,-0.0424 0.0056,-0.0564 0.0027,-0.0139 0.011,-0.041 0.0164,-0.0542 0.0054,-0.0131 0.0188,-0.0381 0.0267,-0.0499 0.0079,-0.0118 0.0259,-0.0337 0.0359,-0.0438 0.0101,-0.01 0.032,-0.028 0.0438,-0.0359 0.0071,-0.0047 0.0218,-0.0133 0.0293,-0.0172 l 0.4069,-0.2074 c 0.0076,-0.0039 0.0222,-0.0125 0.0293,-0.0172 0.0118,-0.0079 0.0337,-0.0259 0.0438,-0.0359 0.01,-0.01 0.028,-0.032 0.0359,-0.0438 0.0079,-0.0118 0.0213,-0.0368 0.0267,-0.0499 0.0054,-0.0132 0.0137,-0.0403 0.0164,-0.0542 0.0028,-0.014 0.0056,-0.0422 0.0056,-0.0564 0,-0.0142 -0.0028,-0.0425 -0.0056,-0.0564 -0.0028,-0.0139 -0.011,-0.0411 -0.0164,-0.0542 -0.0055,-0.0131 -0.0188,-0.0381 -0.0267,-0.0499 -0.0079,-0.0118 -0.0259,-0.0338 -0.036,-0.0438 -0.01,-0.01 -0.0319,-0.028 -0.0437,-0.0359 -0.0119,-0.0079 -0.0369,-0.0213 -0.05,-0.0267 -0.0131,-0.0054 -0.0403,-0.0137 -0.0542,-0.0165 -0.0139,-0.0027 -0.0422,-0.0055 -0.0564,-0.0055 -0.0183,0 -0.055,0.0014 -0.0733,0.0028 -0.0469,0.0036 -0.1395,0.02 -0.1848,0.0327 -0.0453,0.0127 -0.1329,0.0468 -0.1748,0.068 M -9.4444,14.5 v -1.3 m 0.4334,1.0111 c 0,0.0142 0.0027,0.0424 0.0055,0.0564 0.0028,0.0139 0.011,0.041 0.0164,0.0542 0.0055,0.0131 0.0189,0.0381 0.0267,0.0499 0.0079,0.0118 0.0259,0.0337 0.036,0.0438 0.01,0.01 0.0319,0.028 0.0437,0.0359 0.0118,0.0079 0.0369,0.0213 0.05,0.0267 0.0131,0.0054 0.0403,0.0137 0.0542,0.0164 0.0139,0.0028 0.0421,0.0056 0.0563,0.0056 h 0.1445 c 0.0142,0 0.0424,-0.0028 0.0563,-0.0055 0.014,-0.0028 0.0411,-0.0111 0.0542,-0.0165 0.0131,-0.0054 0.0382,-0.0188 0.05,-0.0267 0.0118,-0.0079 0.0337,-0.0259 0.0438,-0.0359 0.01,-0.01 0.028,-0.032 0.0359,-0.0438 0.0079,-0.0118 0.0212,-0.0368 0.0267,-0.0499 0.0054,-0.0131 0.0137,-0.0403 0.0164,-0.0542 0.0028,-0.0139 0.0056,-0.0422 0.0056,-0.0564 v -0.7222 c 0,-0.0142 -0.0028,-0.0424 -0.0056,-0.0564 -0.0027,-0.0139 -0.011,-0.041 -0.0164,-0.0542 -0.0054,-0.0131 -0.0188,-0.0381 -0.0267,-0.0499 -0.0079,-0.0118 -0.0259,-0.0337 -0.0359,-0.0438 -0.0101,-0.01 -0.032,-0.028 -0.0438,-0.0359 C -8.429,13.2408 -8.454,13.2274 -8.4672,13.222 -8.4803,13.2166 -8.5074,13.2083 -8.5214,13.2056 -8.5353,13.2028 -8.5635,13.2 -8.5777,13.2 h -0.1445 c -0.0141,0 -0.0424,0.0028 -0.0563,0.0055 -0.0139,0.0028 -0.0411,0.0111 -0.0542,0.0165 -0.0131,0.0054 -0.0381,0.0188 -0.0499,0.0267 -0.0118,0.0079 -0.0338,0.0259 -0.0438,0.0359 -0.0101,0.01 -0.0281,0.032 -0.036,0.0438 -0.0078,0.0118 -0.0212,0.0368 -0.0267,0.0499 -0.0054,0.0131 -0.0136,0.0403 -0.0164,0.0542 -0.0028,0.0139 -0.0055,0.0422 -0.0055,0.0564 z M -7.8555,13.2 v 1.3 l 0.7222,-1.3 v 1.3"
       style="stroke:#000000;stroke-width:0.18"
       id="path23" />
  </g>
  <g
     id="g24"
     transform="matrix(1,0,0,-1,5.0000002e-4,5.0000002e-4)">
    <path
       d="m -47.3177,36.8962 c -0.0419,0.0213 -0.1296,0.0555 -0.1749,0.0682 -0.0452,0.0127 -0.1379,0.0291 -0.1847,0.0327 -0.0185,0.0015 -0.0553,0.0029 -0.0738,0.0029 -0.0142,0 -0.0425,-0.0028 -0.0564,-0.0056 -0.0139,-0.0027 -0.0411,-0.011 -0.0542,-0.0164 -0.0131,-0.0054 -0.0381,-0.0188 -0.0499,-0.0267 -0.0118,-0.0079 -0.0337,-0.0259 -0.0438,-0.0359 -0.01,-0.0101 -0.028,-0.032 -0.0359,-0.0438 -0.0079,-0.0118 -0.0213,-0.0368 -0.0267,-0.0499 -0.0054,-0.0132 -0.0137,-0.0403 -0.0164,-0.0542 -0.0028,-0.014 -0.0056,-0.0422 -0.0056,-0.0564 0,-0.0142 0.0028,-0.0424 0.0056,-0.0564 0.0027,-0.0139 0.011,-0.041 0.0164,-0.0542 0.0054,-0.0131 0.0188,-0.0381 0.0267,-0.0499 0.0079,-0.0118 0.0259,-0.0337 0.0359,-0.0438 0.0101,-0.01 0.032,-0.028 0.0438,-0.0359 0.0071,-0.0047 0.0218,-0.0133 0.0293,-0.0172 l 0.4069,-0.2074 c 0.0076,-0.0039 0.0222,-0.0125 0.0293,-0.0172 0.0118,-0.0079 0.0337,-0.0259 0.0438,-0.0359 0.01,-0.01 0.028,-0.032 0.0359,-0.0438 0.0079,-0.0118 0.0213,-0.0368 0.0267,-0.0499 0.0054,-0.0132 0.0137,-0.0403 0.0164,-0.0542 0.0028,-0.014 0.0056,-0.0422 0.0056,-0.0564 0,-0.0142 -0.0028,-0.0425 -0.0056,-0.0564 -0.0028,-0.0139 -0.011,-0.0411 -0.0164,-0.0542 -0.0055,-0.0131 -0.0188,-0.0381 -0.0267,-0.0499 -0.0079,-0.0118 -0.0259,-0.0338 -0.036,-0.0438 -0.01,-0.01 -0.0319,-0.028 -0.0437,-0.0359 -0.0119,-0.0079 -0.0369,-0.0213 -0.05,-0.0267 -0.0131,-0.0054 -0.0403,-0.0137 -0.0542,-0.0165 -0.0139,-0.0027 -0.0422,-0.0055 -0.0564,-0.0055 -0.0183,0 -0.055,0.0014 -0.0733,0.0028 -0.0469,0.0036 -0.1395,0.02 -0.1848,0.0327 -0.0453,0.0127 -0.1329,0.0468 -0.1748,0.068 M -46.8844,37 h 0.8667 m -0.4333,0 v -1.3 m 0.8666,0 0.4334,1.3 0.4333,-1.3 m -0.7463,0.3611 h 0.626 M -43.5622,37 h -0.4333 c -0.0142,0 -0.0424,-0.0028 -0.0564,-0.0056 -0.0139,-0.0027 -0.041,-0.011 -0.0541,-0.0164 -0.0132,-0.0054 -0.0382,-0.0188 -0.05,-0.0267 -0.0118,-0.0079 -0.0337,-0.0259 -0.0438,-0.0359 -0.01,-0.0101 -0.028,-0.032 -0.0359,-0.0438 -0.0079,-0.0118 -0.0213,-0.0368 -0.0267,-0.0499 -0.0054,-0.0132 -0.0137,-0.0403 -0.0164,-0.0542 -0.0028,-0.014 -0.0056,-0.0422 -0.0056,-0.0564 v -0.7222 c 0,-0.0142 0.0028,-0.0425 0.0056,-0.0564 0.0027,-0.0139 0.011,-0.0411 0.0164,-0.0542 0.0054,-0.0131 0.0188,-0.0381 0.0267,-0.0499 0.0079,-0.0118 0.0259,-0.0338 0.0359,-0.0438 0.0101,-0.01 0.032,-0.028 0.0438,-0.0359 0.0118,-0.0079 0.0369,-0.0213 0.05,-0.0267 0.0131,-0.0054 0.0402,-0.0137 0.0542,-0.0165 0.0139,-0.0027 0.0421,-0.0055 0.0563,-0.0055 h 0.4333 v 0.7222 h -0.2166 M -42.551,37 h -0.5778 v -1.3 h 0.5778 m -0.5778,0.7222 h 0.4333"
       style="stroke:#000000;stroke-width:0.18"
       id="path24" />
  </g>
  <g
     id="g25"
     transform="matrix(1,0,0,-1,5.0000002e-4,5.0000002e-4)">
    <path
       d="m -48.04,88.2 v 1.3 h 0.4333 c 0.0142,0 0.0425,-0.0028 0.0564,-0.0055 0.0139,-0.0028 0.0411,-0.0111 0.0542,-0.0165 0.0131,-0.0054 0.0381,-0.0188 0.0499,-0.0267 0.0118,-0.0079 0.0338,-0.0259 0.0438,-0.0359 0.01,-0.01 0.028,-0.032 0.0359,-0.0438 0.0079,-0.0118 0.0213,-0.0368 0.0267,-0.0499 0.0055,-0.0131 0.0137,-0.0403 0.0165,-0.0542 0.0027,-0.0139 0.0055,-0.0422 0.0055,-0.0564 v -0.1444 c 0,-0.0142 -0.0028,-0.0425 -0.0055,-0.0564 -0.0028,-0.0139 -0.011,-0.0411 -0.0165,-0.0542 -0.0054,-0.0131 -0.0188,-0.0381 -0.0267,-0.0499 -0.0078,-0.0118 -0.0259,-0.0338 -0.0359,-0.0438 -0.01,-0.01 -0.032,-0.028 -0.0438,-0.0359 -0.0118,-0.0079 -0.0368,-0.0213 -0.0499,-0.0267 -0.0131,-0.0055 -0.0403,-0.0137 -0.0542,-0.0165 -0.0139,-0.0027 -0.0422,-0.0055 -0.0564,-0.0055 H -48.04 M -46.8844,88.2 v 1.3 h 0.4333 c 0.0142,0 0.0424,-0.0028 0.0563,-0.0055 0.014,-0.0028 0.0411,-0.0111 0.0542,-0.0165 0.0131,-0.0054 0.0382,-0.0188 0.05,-0.0267 0.0118,-0.0079 0.0337,-0.0259 0.0438,-0.0359 0.01,-0.01 0.028,-0.032 0.0359,-0.0438 0.0079,-0.0118 0.0213,-0.0368 0.0267,-0.0499 0.0054,-0.0131 0.0137,-0.0403 0.0164,-0.0542 0.0028,-0.0139 0.0056,-0.0422 0.0056,-0.0564 v -0.1444 c 0,-0.0142 -0.0028,-0.0425 -0.0056,-0.0564 -0.0027,-0.0139 -0.011,-0.0411 -0.0164,-0.0542 -0.0054,-0.0131 -0.0188,-0.0381 -0.0267,-0.0499 -0.0079,-0.0118 -0.0259,-0.0338 -0.0359,-0.0438 -0.0101,-0.01 -0.032,-0.028 -0.0438,-0.0359 -0.0118,-0.0079 -0.0368,-0.0213 -0.05,-0.0267 -0.0131,-0.0055 -0.0402,-0.0137 -0.0542,-0.0165 -0.0139,-0.0027 -0.0421,-0.0055 -0.0563,-0.0055 h -0.4333 m 0.4333,0 0.2889,-0.5778 m 0.4333,1.0111 c 0,0.0142 0.0028,0.0424 0.0056,0.0564 0.0027,0.0139 0.011,0.041 0.0164,0.0542 0.0054,0.0131 0.0188,0.0381 0.0267,0.0499 0.0079,0.0118 0.0259,0.0337 0.0359,0.0438 0.0101,0.01 0.032,0.028 0.0438,0.0359 0.0118,0.0079 0.0368,0.0213 0.0499,0.0267 0.0132,0.0054 0.0403,0.0137 0.0542,0.0164 0.014,0.0028 0.0422,0.0056 0.0564,0.0056 h 0.1444 c 0.0142,0 0.0425,-0.0028 0.0564,-0.0055 0.0139,-0.0028 0.0411,-0.0111 0.0542,-0.0165 0.0131,-0.0054 0.0381,-0.0188 0.0499,-0.0267 0.0118,-0.0079 0.0338,-0.0259 0.0438,-0.0359 0.01,-0.01 0.0281,-0.032 0.0359,-0.0438 0.0079,-0.0118 0.0213,-0.0368 0.0267,-0.0499 0.0055,-0.0131 0.0137,-0.0403 0.0165,-0.0542 0.0028,-0.0139 0.0055,-0.0422 0.0055,-0.0564 v -0.7222 c 0,-0.0142 -0.0027,-0.0424 -0.0055,-0.0564 -0.0028,-0.0139 -0.011,-0.041 -0.0165,-0.0542 -0.0054,-0.0131 -0.0188,-0.0381 -0.0267,-0.0499 -0.0078,-0.0118 -0.0258,-0.0337 -0.0359,-0.0438 -0.01,-0.01 -0.032,-0.028 -0.0438,-0.0359 -0.0118,-0.0079 -0.0368,-0.0213 -0.0499,-0.0267 -0.0131,-0.0054 -0.0403,-0.0137 -0.0542,-0.0164 C -45.2531,88.2028 -45.2814,88.2 -45.2956,88.2 H -45.44 c -0.0142,0 -0.0424,0.0028 -0.0563,0.0055 -0.014,0.0028 -0.0411,0.0111 -0.0542,0.0165 -0.0132,0.0054 -0.0382,0.0188 -0.05,0.0267 -0.0118,0.0079 -0.0337,0.0259 -0.0438,0.0359 -0.01,0.01 -0.028,0.032 -0.0359,0.0438 -0.0079,0.0118 -0.0213,0.0368 -0.0267,0.0499 -0.0054,0.0131 -0.0137,0.0403 -0.0164,0.0542 -0.0028,0.0139 -0.0056,0.0422 -0.0056,0.0564 z M -44.5733,88.2 h 0.1444 c 0.0142,0 0.0425,0.0028 0.0564,0.0056 0.0139,0.0027 0.0411,0.011 0.0542,0.0164 0.0131,0.0054 0.0381,0.0188 0.0499,0.0267 0.0118,0.0079 0.0338,0.0259 0.0438,0.0359 0.01,0.0101 0.028,0.032 0.0359,0.0438 0.0079,0.0118 0.0213,0.0368 0.0267,0.0499 0.0054,0.0132 0.0137,0.0403 0.0165,0.0542 0.0027,0.014 0.0055,0.0422 0.0055,0.0564 V 89.5 m 1.0111,0 h -0.5778 v -1.3 h 0.5778 m -0.5778,0.7222 h 0.4334 m 1.1555,0.5778 h -0.2889 c -0.0142,0 -0.0424,-0.0028 -0.0563,-0.0056 -0.0139,-0.0027 -0.0411,-0.011 -0.0542,-0.0164 -0.0131,-0.0054 -0.0382,-0.0188 -0.05,-0.0267 -0.0118,-0.0079 -0.0337,-0.0259 -0.0437,-0.0359 -0.0101,-0.0101 -0.0281,-0.032 -0.036,-0.0438 -0.0079,-0.0118 -0.0212,-0.0368 -0.0267,-0.0499 -0.0054,-0.0132 -0.0136,-0.0403 -0.0164,-0.0542 -0.0028,-0.014 -0.0056,-0.0422 -0.0056,-0.0564 v -0.7222 c 0,-0.0142 0.0028,-0.0425 0.0056,-0.0564 0.0028,-0.0139 0.011,-0.0411 0.0164,-0.0542 0.0055,-0.0131 0.0189,-0.0381 0.0267,-0.0499 0.0079,-0.0118 0.0259,-0.0338 0.036,-0.0438 0.01,-0.01 0.0319,-0.028 0.0437,-0.0359 0.0118,-0.0079 0.0369,-0.0213 0.05,-0.0267 0.0131,-0.0054 0.0403,-0.0137 0.0542,-0.0165 0.0139,-0.0027 0.0421,-0.0055 0.0563,-0.0055 h 0.2889 m 0.4334,1.3 h 0.8666 m -0.4333,0 v -1.3"
       style="stroke:#000000;stroke-width:0.18"
       id="path25" />
  </g>
  <g
     id="g26"
     transform="matrix(1,0,0,-1,5.0000002e-4,5.0000002e-4)">
    <path
       d="m -48.04,82 v -1.3 h 0.5778 m 0.4333,1.0111 c 0,0.0142 0.0028,0.0424 0.0056,0.0564 0.0027,0.0139 0.011,0.041 0.0164,0.0542 0.0054,0.0131 0.0188,0.0381 0.0267,0.0499 0.0079,0.0118 0.0259,0.0337 0.0359,0.0438 0.0101,0.01 0.032,0.028 0.0438,0.0359 0.0118,0.0079 0.0368,0.0213 0.0499,0.0267 0.0132,0.0054 0.0403,0.0137 0.0542,0.0164 0.014,0.0028 0.0422,0.0056 0.0564,0.0056 h 0.1444 c 0.0142,0 0.0425,-0.0028 0.0564,-0.0055 0.0139,-0.0028 0.0411,-0.0111 0.0542,-0.0165 0.0131,-0.0054 0.0381,-0.0188 0.0499,-0.0267 0.0118,-0.0079 0.0338,-0.0259 0.0438,-0.0359 0.01,-0.01 0.0281,-0.032 0.0359,-0.0438 0.0079,-0.0118 0.0213,-0.0368 0.0267,-0.0499 0.0055,-0.0131 0.0137,-0.0403 0.0165,-0.0542 0.0028,-0.0139 0.0055,-0.0422 0.0055,-0.0564 v -0.7222 c 0,-0.0142 -0.0027,-0.0424 -0.0055,-0.0564 -0.0028,-0.0139 -0.011,-0.041 -0.0165,-0.0542 -0.0054,-0.0131 -0.0188,-0.0381 -0.0267,-0.0499 -0.0078,-0.0118 -0.0258,-0.0337 -0.0359,-0.0438 -0.01,-0.01 -0.032,-0.028 -0.0438,-0.0359 -0.0118,-0.0079 -0.0368,-0.0213 -0.0499,-0.0267 -0.0131,-0.0054 -0.0403,-0.0137 -0.0542,-0.0164 C -46.5531,80.7028 -46.5814,80.7 -46.5956,80.7 H -46.74 c -0.0142,0 -0.0424,0.0028 -0.0563,0.0055 -0.014,0.0028 -0.0411,0.0111 -0.0542,0.0165 -0.0132,0.0054 -0.0382,0.0188 -0.05,0.0267 -0.0118,0.0079 -0.0337,0.0259 -0.0438,0.0359 -0.01,0.01 -0.028,0.032 -0.0359,0.0438 -0.0079,0.0118 -0.0213,0.0368 -0.0267,0.0499 -0.0054,0.0131 -0.0137,0.0403 -0.0164,0.0542 -0.0028,0.0139 -0.0056,0.0422 -0.0056,0.0564 z M -45.2956,82 h -0.2888 c -0.0142,0 -0.0425,-0.0028 -0.0564,-0.0056 -0.0139,-0.0027 -0.0411,-0.011 -0.0542,-0.0164 -0.0131,-0.0054 -0.0381,-0.0188 -0.0499,-0.0267 -0.0118,-0.0079 -0.0338,-0.0259 -0.0438,-0.0359 -0.0101,-0.0101 -0.0281,-0.032 -0.0359,-0.0438 -0.0079,-0.0118 -0.0213,-0.0368 -0.0267,-0.0499 -0.0055,-0.0132 -0.0137,-0.0403 -0.0165,-0.0542 -0.0028,-0.014 -0.0055,-0.0422 -0.0055,-0.0564 v -0.7222 c 0,-0.0142 0.0027,-0.0425 0.0055,-0.0564 0.0028,-0.0139 0.011,-0.0411 0.0165,-0.0542 0.0054,-0.0131 0.0188,-0.0381 0.0267,-0.0499 0.0078,-0.0118 0.0259,-0.0338 0.0359,-0.0438 0.01,-0.01 0.032,-0.028 0.0438,-0.0359 0.0118,-0.0079 0.0368,-0.0213 0.0499,-0.0267 0.0131,-0.0054 0.0403,-0.0137 0.0542,-0.0165 0.0139,-0.0027 0.0422,-0.0055 0.0564,-0.0055 h 0.2888 m 0.4334,0 0.4333,1.3 0.4333,-1.3 m -0.7463,0.3611 h 0.626 M -43.5622,82 h 0.8666 m -0.4333,0 v -1.3 m 0.8667,1.3 v -1.3 m 0.4333,1.0111 c 0,0.0142 0.0028,0.0424 0.0056,0.0564 0.0027,0.0139 0.011,0.041 0.0164,0.0542 0.0054,0.0131 0.0188,0.0381 0.0267,0.0499 0.0079,0.0118 0.0259,0.0337 0.0359,0.0438 0.0101,0.01 0.032,0.028 0.0438,0.0359 0.0118,0.0079 0.0368,0.0213 0.0499,0.0267 0.0132,0.0054 0.0403,0.0137 0.0542,0.0164 0.014,0.0028 0.0422,0.0056 0.0564,0.0056 h 0.1444 c 0.0142,0 0.0425,-0.0028 0.0564,-0.0055 0.0139,-0.0028 0.0411,-0.0111 0.0542,-0.0165 0.0131,-0.0054 0.0381,-0.0188 0.0499,-0.0267 0.0118,-0.0079 0.0338,-0.0259 0.0438,-0.0359 0.01,-0.01 0.0281,-0.032 0.0359,-0.0438 0.0079,-0.0118 0.0213,-0.0368 0.0267,-0.0499 0.0055,-0.0131 0.0137,-0.0403 0.0165,-0.0542 0.0028,-0.0139 0.0055,-0.0422 0.0055,-0.0564 v -0.7222 c 0,-0.0142 -0.0027,-0.0424 -0.0055,-0.0564 -0.0028,-0.0139 -0.011,-0.041 -0.0165,-0.0542 -0.0054,-0.0131 -0.0188,-0.0381 -0.0267,-0.0499 -0.0078,-0.0118 -0.0258,-0.0337 -0.0359,-0.0438 -0.01,-0.01 -0.032,-0.028 -0.0438,-0.0359 -0.0118,-0.0079 -0.0368,-0.0213 -0.0499,-0.0267 -0.0131,-0.0054 -0.0403,-0.0137 -0.0542,-0.0164 C -41.3531,80.7028 -41.3814,80.7 -41.3956,80.7 H -41.54 c -0.0142,0 -0.0424,0.0028 -0.0563,0.0055 -0.014,0.0028 -0.0411,0.0111 -0.0542,0.0165 -0.0132,0.0054 -0.0382,0.0188 -0.05,0.0267 -0.0118,0.0079 -0.0337,0.0259 -0.0438,0.0359 -0.01,0.01 -0.028,0.032 -0.0359,0.0438 -0.0079,0.0118 -0.0213,0.0368 -0.0267,0.0499 -0.0054,0.0131 -0.0137,0.0403 -0.0164,0.0542 -0.0028,0.0139 -0.0056,0.0422 -0.0056,0.0564 z M -40.6733,80.7 V 82 l 0.7222,-1.3 V 82"
       style="stroke:#000000;stroke-width:0.18"
       id="path26" />
  </g>
  <g
     id="g27"
     transform="matrix(1,0,0,-1,5.0000002e-4,5.0000002e-4)">
    <path
       d="m -47.4622,67 h -0.2889 c -0.0142,0 -0.0425,-0.0028 -0.0564,-0.0056 -0.0139,-0.0027 -0.0411,-0.011 -0.0542,-0.0164 -0.0131,-0.0054 -0.0381,-0.0188 -0.0499,-0.0267 -0.0118,-0.0079 -0.0338,-0.0259 -0.0438,-0.0359 -0.01,-0.0101 -0.028,-0.032 -0.0359,-0.0438 -0.0079,-0.0118 -0.0213,-0.0368 -0.0267,-0.0499 -0.0054,-0.0132 -0.0137,-0.0403 -0.0165,-0.0542 -0.0027,-0.014 -0.0055,-0.0422 -0.0055,-0.0564 v -0.7222 c 0,-0.0142 0.0028,-0.0425 0.0056,-0.0564 0.0027,-0.0139 0.011,-0.0411 0.0164,-0.0542 0.0054,-0.0131 0.0188,-0.0381 0.0267,-0.0499 0.0079,-0.0118 0.0259,-0.0338 0.0359,-0.0438 0.0101,-0.01 0.032,-0.028 0.0438,-0.0359 0.0118,-0.0079 0.0368,-0.0213 0.0499,-0.0267 0.0132,-0.0054 0.0403,-0.0137 0.0542,-0.0165 0.014,-0.0027 0.0422,-0.0055 0.0564,-0.0055 h 0.2889 m 0.4333,1.3 v -1.3 h 0.5778 m 0.4333,1.3 v -1.3 m 1.0111,1.3 h -0.5777 v -1.3 h 0.5777 m -0.5777,0.7222 h 0.4333 M -44.5733,65.7 V 67 l 0.7222,-1.3 V 67 m 0.4333,0 h 0.8667 m -0.4333,0 v -1.3"
       style="stroke:#000000;stroke-width:0.18"
       id="path27" />
  </g>
  <text
     xml:space="preserve"
     style="font-size:3.5px;line-height:1;font-family:Arial;-inkscape-font-specification:'Arial, Normal';writing-mode:lr-tb;direction:ltr;fill:#000000;stroke:#000000;stroke-width:0.1;font-weight:normal;font-style:normal;font-stretch:normal;font-variant:normal;font-variant-ligatures:normal;font-variant-caps:normal;font-variant-numeric:normal;font-variant-east-asian:normal"
     x="-46.478477"
     y="-84.461601"
     id="text2"><tspan
       id="tspan13">{{ProjectName}}</tspan></text>
  <text
     xml:space="preserve"
     style="font-style:normal;font-variant:normal;font-weight:normal;font-stretch:normal;font-size:4px;line-height:1;font-family:Arial;-inkscape-font-specification:Arial;font-variant-ligatures:normal;font-variant-caps:normal;font-variant-numeric:normal;font-variant-east-asian:normal;text-align:center;writing-mode:lr-tb;direction:ltr;text-anchor:middle;fill:#800000;stroke:#800000;stroke-width:0.1;stroke-linecap:round;stroke-linejoin:round;stroke-opacity:1"
     x="-24.092321"
     y="-31.948828"
     id="text2-9">{{Status}}</text>
  <text
     xml:space="preserve"
     style="font-size:10px;line-height:1;font-family:Arial;-inkscape-font-specification:'Arial, Normal';text-align:center;writing-mode:lr-tb;direction:ltr;text-anchor:middle;fill:#000000;stroke:#000000;stroke-width:0.1;stroke-linecap:round;stroke-linejoin:round;font-weight:normal;font-style:normal;font-stretch:normal;font-variant:normal;font-variant-ligatures:normal;font-variant-caps:normal;font-variant-numeric:normal;font-variant-east-asian:normal"
     x="-7.9107375"
     y="-2.8177834"
     id="text2-9-8"><tspan
       id="tspan14">{{SheetRevision}}</tspan></text>
  <text
     xml:space="preserve"
     style="font-size:3.5px;line-height:1;font-family:Arial;-inkscape-font-specification:'Arial, Normal';text-align:start;writing-mode:lr-tb;direction:ltr;text-anchor:start;fill:#000000;stroke:#000000;stroke-width:0.1;stroke-linecap:round;stroke-linejoin:round;font-weight:normal;font-style:normal;font-stretch:normal;font-variant:normal;font-variant-ligatures:normal;font-variant-caps:normal;font-variant-numeric:normal;font-variant-east-asian:normal"
     x="-46.360271"
     y="-9.3402233"
     id="text2-9-5"><tspan
       id="tspan8">{{DrawnBy}}</tspan></text>
  <text
     xml:space="preserve"
     style="font-size:3.5px;line-height:1;font-family:Arial;-inkscape-font-specification:'Arial, Normal';text-align:start;writing-mode:lr-tb;direction:ltr;text-anchor:start;fill:#000000;stroke:#000000;stroke-width:0.1;stroke-linecap:round;stroke-linejoin:round;font-weight:normal;font-style:normal;font-stretch:normal;font-variant:normal;font-variant-ligatures:normal;font-variant-caps:normal;font-variant-numeric:normal;font-variant-east-asian:normal"
     x="-29.494713"
     y="-9.3529367"
     id="text2-9-5-5"><tspan
       id="tspan7">{{ProjectNumber}}</tspan></text>
  <text
     xml:space="preserve"
     style="font-size:3.5px;line-height:1;font-family:Arial;-inkscape-font-specification:'Arial, Normal';text-align:start;writing-mode:lr-tb;direction:ltr;text-anchor:start;fill:#000000;stroke:#000000;stroke-width:0.1;stroke-linecap:round;stroke-linejoin:round;font-weight:normal;font-style:normal;font-stretch:normal;font-variant:normal;font-variant-ligatures:normal;font-variant-caps:normal;font-variant-numeric:normal;font-variant-east-asian:normal"
     x="-46.139"
     y="-2.3946831"
     id="text2-9-5-7"><tspan
       id="tspan5">{{CheckedBy}}</tspan></text>
  <text
     xml:space="preserve"
     style="font-style:normal;font-variant:normal;font-weight:normal;font-stretch:normal;font-size:3.5px;line-height:1;font-family:Arial;-inkscape-font-specification:'Arial, Normal';font-variant-ligatures:normal;font-variant-caps:normal;font-variant-numeric:normal;font-variant-east-asian:normal;text-align:start;writing-mode:lr-tb;direction:ltr;text-anchor:start;fill:#000000;stroke:#000000;stroke-width:0.1;stroke-linecap:round;stroke-linejoin:round"
     x="-30.131454"
     y="-2.4357703"
     id="text2-9-5-7-2"><tspan
       id="tspan1">{{Identification}}</tspan></text>
  <text
     xml:space="preserve"
     style="font-style:normal;font-variant:normal;font-weight:normal;font-stretch:normal;font-size:3.5px;line-height:1;font-family:Arial;-inkscape-font-specification:'Arial, Normal';font-variant-ligatures:normal;font-variant-caps:normal;font-variant-numeric:normal;font-variant-east-asian:normal;text-align:start;writing-mode:lr-tb;direction:ltr;text-anchor:start;fill:#000000;stroke:#000000;stroke-width:0.1;stroke-linecap:round;stroke-linejoin:round"
     x="-46.372993"
     y="-17.228601"
     id="text2-9-5-2"><tspan
       id="tspan9">{{Scale}}</tspan></text>
  <text
     xml:space="preserve"
     style="font-style:normal;font-variant:normal;font-weight:normal;font-stretch:normal;font-size:3.5px;line-height:1;font-family:Arial;-inkscape-font-specification:'Arial, Normal';font-variant-ligatures:normal;font-variant-caps:normal;font-variant-numeric:normal;font-variant-east-asian:normal;text-align:start;writing-mode:lr-tb;direction:ltr;text-anchor:start;fill:#000000;stroke:#000000;stroke-width:0.1;stroke-linecap:round;stroke-linejoin:round"
     x="-46.455441"
     y="-24.604403"
     id="text2-9-5-2-7"><tspan
       id="tspan10">{{IssueDate}}</tspan></text>
  <text
     xml:space="preserve"
     style="font-style:normal;font-variant:normal;font-weight:normal;font-stretch:normal;font-size:3.5px;line-height:1;font-family:Arial;-inkscape-font-specification:'Arial, Normal';font-variant-ligatures:normal;font-variant-caps:normal;font-variant-numeric:normal;font-variant-east-asian:normal;text-align:start;writing-mode:lr-tb;direction:ltr;text-anchor:start;fill:#000000;stroke:#000000;stroke-width:0.1;stroke-linecap:round;stroke-linejoin:round"
     x="-46.657619"
     y="-61.840569"
     id="text2-9-5-2-7-9"><tspan
       id="tspan12">{{ClientName}}</tspan></text>
</svg>
